<!DOCTYPE svg PUBLIC "-//W3C//DTD SVG 1.1//EN" "http://www.w3.org/Graphics/SVG/1.1/DTD/svg11.dtd">
<!-- Uploaded to: SVG Repo, www.svgrepo.com, Transformed by: SVG Repo Mixer Tools -->
<svg fill="#f64b3c" height="800px" width="800px" version="1.1" id="Layer_1" xmlns="http://www.w3.org/2000/svg" xmlns:xlink="http://www.w3.org/1999/xlink" viewBox="0 0 512 512" xml:space="preserve" stroke="#f64b3c">
<g id="SVGRepo_bgCarrier" stroke-width="0"/>
<g id="SVGRepo_tracerCarrier" stroke-linecap="round" stroke-linejoin="round"/>
<g id="SVGRepo_iconCarrier"> <g> <g> <g> <path d="M37.764,239.934h366.803c4.418,0,7.997-3.579,7.997-7.997s-3.579-7.997-7.997-7.997H37.764 c-6.333,0-10.914-1.826-14.009-5.585c-7.225-8.775-5.74-26.467-4.55-32.597C39.35,92.91,127.282,25.525,228.322,25.525h55.356 c101.457,0,189.446,67.705,209.274,161.013c2.688,15.479,3.093,34.334-9.849,37.402h-52.945c-4.418,0-7.997,3.58-7.997,7.997 s3.58,7.997,7.997,7.997h53.777c0.5,0,0.998-0.047,1.489-0.14c8.863-1.679,15.808-6.768,20.084-14.712 c5.218-9.694,6.287-23.635,3.175-41.438c-0.016-0.094-0.034-0.188-0.054-0.28c-10.253-48.43-38.232-92.541-78.781-124.208 c-40.979-32.002-92.889-49.626-146.17-49.626h-55.356c-53.111,0-104.894,17.523-145.81,49.34 C42.035,90.347,13.995,134.236,3.557,182.451c-0.01,0.043-0.018,0.084-0.026,0.127c-0.597,2.992-5.449,29.695,7.839,45.897 C15.657,233.703,23.717,239.934,37.764,239.934z"/> <path d="M512,434.197c0-4.418-3.579-7.997-7.997-7.997h-15.319c6.223-7.692,9.974-17.577,9.974-28.35v-6.059 c0-10.774-3.751-20.658-9.974-28.35h1.977c4.418,0,7.997-3.579,7.997-7.997v-45.606c0-4.418-3.579-7.997-7.997-7.997H21.339 c-4.418,0-7.997,3.579-7.997,7.997v45.606c0,4.418,3.579,7.997,7.997,7.997h1.977c-6.223,7.692-9.974,17.577-9.974,28.35v6.059 c0,10.773,3.751,20.658,9.974,28.35H7.997C3.579,426.2,0,429.78,0,434.197v9.778c0,0.324,0.014,0.645,0.033,0.964 C0.014,445.259,0,445.579,0,445.905v10.99c0,0.326,0.014,0.645,0.033,0.966c-0.02,0.32-0.033,0.64-0.033,0.964v13.483 c0,16.631,13.173,30.16,29.365,30.16h40.391c4.418,0,7.997-3.579,7.997-7.997s-3.58-7.997-7.997-7.997H29.365 c-7.373,0-13.371-6.355-13.371-14.165l-0.001-13.391l0.011-0.176c0.012-0.172,0.022-0.342,0.03-0.514 c0.012-0.24,0.012-0.48,0-0.72c-0.007-0.178-0.019-0.353-0.03-0.527l-0.011-10.986l0.011-0.174 c0.012-0.174,0.022-0.348,0.03-0.524c0.012-0.241,0.012-0.481,0-0.722c-0.007-0.171-0.019-0.341-0.03-0.512l-0.01-1.869h40.385 h177.382l15.716,19.142c0.379,0.461,0.803,0.873,1.264,1.233c1.384,1.079,3.099,1.684,4.886,1.69c0.012,0,0.022,0,0.032,0 c0.167,0,0.332-0.017,0.498-0.028c0.123-0.007,0.245-0.007,0.367-0.02c0.224-0.025,0.443-0.066,0.662-0.109 c0.066-0.013,0.134-0.019,0.2-0.033c0.266-0.059,0.526-0.133,0.784-0.219c0.018-0.006,0.037-0.01,0.055-0.015 c0.817-0.277,1.583-0.685,2.273-1.209c0.01-0.007,0.019-0.013,0.029-0.019c0.193-0.148,0.376-0.311,0.557-0.478 c0.036-0.034,0.077-0.062,0.112-0.096c0.212-0.204,0.415-0.42,0.605-0.648l16.013-19.191h177.807h40.386v1.701l-0.039,0.681 c-0.012,0.24-0.012,0.481,0,0.722l0.039,11.519l-0.039,0.691c-0.012,0.24-0.012,0.48,0,0.72l0.038,14.081 c0,7.81-5.998,14.166-13.37,14.166H95.347c-4.418,0-7.997,3.579-7.997,7.997s3.58,7.997,7.997,7.997h387.289 c16.193,0,29.364-13.53,29.364-30.16v-13.483c0-0.325-0.014-0.645-0.032-0.964c0.019-0.321,0.032-0.641,0.032-0.966v-10.99 c0-0.326-0.014-0.645-0.032-0.965c0.019-0.32,0.032-0.642,0.032-0.965V434.197z M56.379,426.2L56.379,426.2 c-14.911,0-27.043-12.719-27.043-28.35v-6.059c0-15.632,12.132-28.35,27.043-28.35H81.55v18.864c0,4.418,3.58,7.997,7.997,7.997 c4.418,0,7.997-3.579,7.997-7.997v-18.864h34.042v18.864c0,4.418,3.579,7.997,7.997,7.997s7.997-3.579,7.997-7.997v-18.864 h21.525l20.909,25.467L220.63,426.2H56.379z M267.928,429.074l-12.22,14.645l-64.439-78.488l-1.469-1.79h132.894l-11.744,14.075 L267.928,429.074z M482.664,397.85c0,15.632-12.132,28.35-27.043,28.35H291.158l49.697-59.56l2.669-3.199h18.23v18.864 c0,4.418,3.579,7.997,7.997,7.997c4.417,0,7.997-3.579,7.997-7.997v-18.864h34.043v18.864c0,4.418,3.579,7.997,7.997,7.997 s7.997-3.579,7.997-7.997v-18.864h27.835c14.911,0,27.043,12.719,27.043,28.35V397.85z M482.664,347.447h-27.043H339.782H172.887 H56.379H29.336v-29.612h453.327V347.447z"/> <path d="M497.933,281.106l-39.281-32.399c-0.007-0.006-0.016-0.012-0.025-0.018c-0.16-0.131-0.326-0.25-0.494-0.367 c-0.052-0.036-0.101-0.078-0.155-0.112c-0.157-0.103-0.318-0.195-0.481-0.287c-0.07-0.041-0.139-0.086-0.21-0.124 c-0.112-0.059-0.228-0.107-0.342-0.16c-0.126-0.059-0.251-0.123-0.379-0.175c-0.009-0.003-0.017-0.005-0.025-0.009 c-1.09-0.438-2.249-0.615-3.394-0.556c-0.81,0.042-1.616,0.205-2.392,0.495c-0.066,0.024-0.133,0.043-0.198,0.069 c-0.103,0.043-0.204,0.095-0.307,0.142c-0.138,0.063-0.277,0.122-0.413,0.193c-0.062,0.033-0.12,0.072-0.182,0.107 c-0.172,0.096-0.343,0.193-0.509,0.303c-0.048,0.032-0.093,0.069-0.141,0.102c-0.172,0.119-0.343,0.242-0.506,0.376 c-0.007,0.006-0.016,0.011-0.023,0.017l-34.22,28.188l-34.201-28.205c-0.005-0.004-0.012-0.009-0.017-0.013 c-0.187-0.154-0.38-0.294-0.577-0.429c-0.023-0.016-0.046-0.035-0.069-0.051c-0.194-0.129-0.393-0.245-0.595-0.355 c-0.032-0.017-0.063-0.038-0.095-0.055c-0.17-0.09-0.344-0.166-0.519-0.243c-0.067-0.03-0.133-0.065-0.202-0.093 c-0.111-0.045-0.226-0.079-0.339-0.119c-0.787-0.279-1.603-0.432-2.422-0.457c-1.026-0.033-2.057,0.13-3.039,0.496 c-0.074,0.027-0.148,0.048-0.221,0.078c-0.09,0.036-0.176,0.082-0.264,0.123c-0.154,0.068-0.307,0.134-0.456,0.213 c-0.046,0.023-0.089,0.053-0.133,0.078c-0.189,0.104-0.375,0.212-0.557,0.332c-0.036,0.025-0.07,0.053-0.107,0.078 c-0.183,0.126-0.365,0.257-0.54,0.4c-0.007,0.005-0.015,0.011-0.021,0.016l-34.215,28.187l-34.201-28.204 c-1.528-1.26-3.384-1.853-5.222-1.821c-1.848-0.041-3.718,0.55-5.257,1.816l-34.217,28.188l-34.202-28.205 c-0.006-0.005-0.013-0.009-0.018-0.014c-0.181-0.148-0.369-0.285-0.56-0.416c-0.03-0.02-0.058-0.044-0.089-0.064 c-0.182-0.12-0.37-0.229-0.56-0.335c-0.044-0.025-0.086-0.053-0.131-0.077c-0.145-0.077-0.295-0.141-0.445-0.208 c-0.093-0.042-0.183-0.09-0.277-0.128c-0.059-0.023-0.119-0.041-0.179-0.063c-1.177-0.446-2.428-0.606-3.653-0.479 c-0.392,0.041-0.781,0.115-1.165,0.214c-0.096,0.025-0.192,0.043-0.287,0.07c-0.086,0.026-0.172,0.061-0.257,0.09 c-0.162,0.053-0.324,0.106-0.482,0.169c-0.043,0.017-0.083,0.041-0.126,0.059c-0.2,0.085-0.4,0.175-0.594,0.277 c-0.018,0.01-0.035,0.021-0.054,0.032c-0.215,0.116-0.428,0.241-0.633,0.378c-0.025,0.016-0.047,0.035-0.071,0.051 c-0.196,0.133-0.388,0.273-0.574,0.425c-0.006,0.005-0.013,0.01-0.019,0.015l-34.214,28.185l-34.201-28.204 c-0.007-0.005-0.015-0.011-0.021-0.016c-0.171-0.14-0.348-0.268-0.527-0.391c-0.04-0.028-0.079-0.061-0.12-0.087 c-0.168-0.112-0.342-0.211-0.517-0.309c-0.059-0.033-0.115-0.071-0.175-0.102c-0.126-0.066-0.256-0.12-0.385-0.18 c-0.112-0.052-0.223-0.109-0.337-0.156c-0.029-0.012-0.058-0.019-0.086-0.03c-1.123-0.44-2.317-0.613-3.492-0.528 c-0.716,0.05-1.425,0.199-2.111,0.445c-0.109,0.038-0.219,0.07-0.325,0.114c-0.075,0.031-0.147,0.069-0.222,0.102 c-0.167,0.074-0.335,0.147-0.498,0.232c-0.041,0.021-0.079,0.048-0.119,0.07c-0.193,0.106-0.384,0.216-0.569,0.339 c-0.035,0.023-0.068,0.051-0.103,0.075c-0.185,0.127-0.367,0.259-0.543,0.403c-0.007,0.005-0.014,0.01-0.021,0.016 l-34.216,28.186l-34.2-28.205c-0.213-0.176-0.433-0.339-0.658-0.488l-1.271-1.048c-2.954-2.435-7.219-2.438-10.173-0.003 l-39.305,32.375c-3.409,2.809-3.896,7.848-1.089,11.258c2.811,3.41,7.85,3.895,11.258,1.089l34.218-28.185l34.196,28.206 c0.138,0.113,0.29,0.194,0.433,0.297l1.501,1.238c1.477,1.219,3.282,1.828,5.087,1.828c1.803,0,3.608-0.608,5.085-1.824 l34.216-28.185l34.201,28.205c1.477,1.219,3.282,1.828,5.087,1.828c1.803,0,3.608-0.608,5.085-1.824l34.215-28.185l34.202,28.205 c1.478,1.219,3.282,1.828,5.087,1.828c1.803,0,3.608-0.608,5.085-1.824l34.369-28.312l34.354,28.332 c1.477,1.218,3.282,1.828,5.087,1.828c1.803,0,3.608-0.608,5.085-1.824l34.216-28.187l34.2,28.205 c1.477,1.219,3.282,1.828,5.088,1.828c1.803,0,3.608-0.608,5.085-1.824l34.219-28.187l34.195,28.204 c1.49,1.228,3.293,1.828,5.085,1.828c2.304,0,4.592-0.992,6.174-2.909C501.825,288.958,501.34,283.916,497.933,281.106z"/> </g> </g> </g> </g>
</svg>